<svg width="138" height="34" viewBox="0 0 138 34" fill="none" xmlns="http://www.w3.org/2000/svg">
<g id="logo">
<path id="Vector 3" d="M29.6445 27.8034L33.2022 0.824707L54.8444 17.1305L29.6445 27.8034Z" fill="#2A29EA" fill-opacity="0.46"/>
<path id="Vector 2" d="M19.2695 1.41797L22.2342 28.1002L44.1729 12.3873L19.2695 1.41797Z" fill="#FF4173" fill-opacity="0.31"/>
<path id="Vector 1" d="M27.8681 7.34717L16.6023 32.8435L0 11.2013L27.8681 7.34717Z" fill="#FFDA58" fill-opacity="0.27"/>
<g id="Jybe">
<path d="M56.5781 26.9971V22.7635C57.6454 23.6885 59.3531 24.4712 61.203 24.4712C63.8001 24.4712 64.227 22.052 64.227 19.4905V1.70241H69.5635V20.2732C69.5635 25.5029 67.7491 28.7404 62.2703 28.7404C60.2425 28.7404 58.0368 28.0644 56.5781 26.9971Z" fill="black"/>
<path d="M93.5538 5.93598L83.8415 33.4364H78.1849L80.604 26.8904L72.4571 5.93598H78.2204L83.2367 20.0598H83.3078L88.0395 5.93598H93.5538Z" fill="black"/>
<path d="M96.376 28.1V0.563965H101.712V10.6676H101.784C103.1 7.28788 104.843 5.29561 108.721 5.29561C115.089 5.29561 116.263 11.8416 116.263 16.8935C116.263 22.728 113.595 28.7404 108.045 28.7404C103.989 28.7404 102.317 26.3567 101.463 23.902H101.392V28.1H96.376ZM111.354 17.4271C111.354 13.5493 110.464 10.632 106.266 10.632C102.46 10.632 101.392 14.3676 101.392 17.1425C101.392 21.127 102.246 24.2577 106.551 24.2577C109.361 24.2577 111.354 21.3049 111.354 17.4271Z" fill="black"/>
<path d="M136.897 20.2732V24.9693C135.083 27.175 132.343 28.7404 129.426 28.7404C122.169 28.7404 118.967 23.902 118.967 16.8935C118.967 9.81379 122.56 5.29561 128.857 5.29561C135.545 5.29561 138 9.67149 138 16.1108C138 17.0358 137.893 17.9608 137.822 18.8502H124.09C124.161 22.6924 126.367 24.4712 130.138 24.4712C133.802 24.4712 135.296 22.7991 136.897 20.2732ZM124.09 14.581H134.371C134.264 11.6282 131.81 10.2051 129.141 10.2051C126.687 10.2051 124.339 11.7349 124.09 14.581Z" fill="black"/>
</g>
</g>
</svg>
