<svg width="29" height="29" viewBox="0 0 29 29" fill="none" xmlns="http://www.w3.org/2000/svg">
<g id="Wallet 2" opacity="0.4">
<g id="Group">
<g id="Iconly/Curved/Wallet">
<g id="Wallet">
<path id="Stroke 1" d="M24.8478 17.4273H20.3777C19.5958 17.4273 18.846 17.1167 18.2931 16.5638C17.7403 16.011 17.4297 15.2611 17.4297 14.4793C17.4297 13.6974 17.7403 12.9476 18.2931 12.3947C18.846 11.8418 19.5958 11.5312 20.3777 11.5312H24.8133" stroke="#1E265E" stroke-width="1.725" strokeLinecap="round" strokeLinejoin="round"/>
<path id="Stroke 3" d="M20.8845 14.4111H20.543" stroke="#1E265E" stroke-width="1.725" strokeLinecap="round" strokeLinejoin="round"/>
<path id="Stroke 5" d="M9.25 9.91602H13.919" stroke="#1E265E" stroke-width="1.725" strokeLinecap="round" strokeLinejoin="round"/>
<path id="Stroke 7" fill-rule="evenodd" clip-rule="evenodd" d="M3.625 14.6411C3.625 7.27539 6.2999 4.82129 14.3212 4.82129C22.3424 4.82129 25.0161 7.27539 25.0161 14.6423C25.0161 22.0057 22.3424 24.461 14.3212 24.461C6.29875 24.461 3.62615 22.0057 3.62615 14.6411H3.625Z" stroke="#1E265E" stroke-width="1.725" strokeLinecap="round" strokeLinejoin="round"/>
</g>
</g>
</g>
</g>
</svg>
