<svg width="108" height="31" viewBox="0 0 108 31" fill="none" xmlns="http://www.w3.org/2000/svg">
<path d="M15.3531 3.23883H4.60449V28.2388L15.3531 3.23883Z" fill="#FA0F00"/>
<path d="M33.6607 3.23883H22.9208L33.6607 28.2388V3.23883Z" fill="#FA0F00"/>
<path fill-rule="evenodd" clip-rule="evenodd" d="M63.542 12.3321C59.4794 12.3321 57.1042 14.9207 57.1042 18.0068C57.1042 21.6772 59.634 23.489 62.9193 23.489C64.4223 23.4907 65.91 23.197 67.2932 22.6254C67.426 22.5831 67.4478 22.5386 67.4478 22.4307C67.3825 21.9082 67.3527 21.3822 67.3585 20.8559V8.10294C67.3585 8.01616 67.3368 7.97383 67.2257 7.97383H64.4281C64.4072 7.97145 64.386 7.97371 64.3662 7.98042C64.3463 7.98713 64.3283 7.99813 64.3134 8.01259C64.2985 8.02705 64.2872 8.04459 64.2803 8.06391C64.2734 8.08322 64.2711 8.1038 64.2735 8.12411V12.3744C64.1721 12.3679 64.0809 12.3615 63.9982 12.3556C63.8094 12.3423 63.6646 12.3321 63.542 12.3321ZM63.4527 14.8361C63.7308 14.8233 64.0089 14.8599 64.2735 14.944V20.7924C63.9359 20.8923 63.5833 20.9359 63.2307 20.9215C61.5434 20.9215 60.2785 19.9923 60.2785 17.8566C60.2785 15.85 61.7437 14.8361 63.4527 14.8361Z" fill="#FA0F00"/>
<path fill-rule="evenodd" clip-rule="evenodd" d="M46.1967 23.0995L47.2613 19.9076H52.3798L53.5119 23.1228C53.5267 23.1729 53.56 23.216 53.6054 23.2437C53.6508 23.2714 53.7051 23.2819 53.7579 23.2731H56.6383C56.7711 23.2731 56.7929 23.1863 56.7493 23.0784L51.7114 9.2671C51.6875 9.15915 51.6439 9.13798 51.5329 9.13798H47.982C47.9442 9.14173 47.9094 9.15941 47.8847 9.18737C47.86 9.21533 47.8473 9.25145 47.8491 9.28827C47.8529 9.73588 47.7793 10.1809 47.6314 10.6048L43.1922 23.0614C43.1683 23.1863 43.214 23.2731 43.3686 23.2731H45.9529C46.0078 23.2758 46.0621 23.2601 46.1065 23.2284C46.1509 23.1968 46.1828 23.1513 46.1967 23.0995ZM50.9325 15.2251L50.9333 15.2275C51.1766 15.975 51.4046 16.6751 51.5677 17.2088H48.0516C48.0941 17.0814 48.1377 16.9508 48.1822 16.8176C48.7509 15.1139 49.4622 12.9828 49.7933 11.642H49.8151C50.0775 12.5989 50.5258 13.976 50.9315 15.2222L50.9318 15.2229L50.932 15.2236L50.9322 15.2243L50.9323 15.2245L50.9325 15.2251Z" fill="#FA0F00"/>
<path fill-rule="evenodd" clip-rule="evenodd" d="M80.0709 17.8566C80.0709 21.2432 77.8067 23.489 74.6106 23.489C70.8137 23.489 69.1286 20.7056 69.1286 17.9222C69.1286 14.8572 71.2361 12.332 74.6542 12.332C78.2291 12.332 80.0709 14.944 80.0709 17.8566ZM72.2571 17.8777C72.2571 19.7827 73.1672 20.985 74.652 20.985C75.9409 20.985 76.9162 19.9076 76.9162 17.9222C76.9162 16.2288 76.2065 14.8361 74.5214 14.8361C73.2347 14.8361 72.2571 15.9579 72.2571 17.8777Z" fill="#FA0F00"/>
<path fill-rule="evenodd" clip-rule="evenodd" d="M84.9543 8.14527C84.9543 7.99499 84.9129 7.97382 84.7366 7.97382H82.026C81.915 7.97382 81.8715 8.01616 81.8715 8.12411V22.7799C81.8727 22.8234 81.8856 22.8658 81.9089 22.9029C81.9322 22.94 81.9651 22.9706 82.0042 22.9916C83.1325 23.3293 84.3072 23.4971 85.4877 23.489C88.8601 23.489 92.1454 21.5036 92.1454 17.4671C92.1454 14.5757 90.0837 12.332 86.8179 12.332C86.1887 12.3312 85.5621 12.4109 84.9543 12.5691V8.14527ZM84.9543 15.052C85.3785 14.9315 85.8187 14.873 86.2606 14.8784H86.2671C87.8216 14.8784 88.9973 15.7843 88.9929 17.7592C88.9929 20.0029 87.4624 20.9956 85.7751 20.9956C85.499 20.9989 85.2235 20.9704 84.9543 20.9109V15.052Z" fill="#FA0F00"/>
<path fill-rule="evenodd" clip-rule="evenodd" d="M96.4888 18.699C96.5998 19.9288 97.4881 20.9427 99.6631 20.9427C100.599 20.9602 101.528 20.7909 102.393 20.4452C102.461 20.4029 102.526 20.4241 102.526 20.5532V22.6042C102.526 22.7545 102.482 22.8159 102.371 22.8625C101.483 23.2731 100.508 23.4975 98.9751 23.4975C94.8015 23.4975 93.3385 20.7141 93.3385 18.0386C93.3385 15.0604 95.2239 12.3405 98.7095 12.3405C102.06 12.3405 103.393 14.8657 103.393 16.9972C103.408 17.4815 103.371 17.9661 103.282 18.4429C103.278 18.4879 103.259 18.5304 103.226 18.5623C103.193 18.5942 103.149 18.6135 103.103 18.6164C102.343 18.6862 101.58 18.7152 100.817 18.7032L96.4888 18.699ZM99.3757 16.6056C99.7457 16.6188 100.116 16.6039 100.484 16.5611V16.4109C100.477 16.1778 100.423 15.9483 100.325 15.7359C100.226 15.5234 100.085 15.3321 99.9093 15.1733C99.7338 15.0145 99.5274 14.8912 99.3024 14.8108C99.0773 14.7304 98.838 14.6943 98.5985 14.7048C97.2007 14.7048 96.5998 15.7208 96.467 16.6098L99.3757 16.6056Z" fill="#FA0F00"/>
<path d="M25.9797 28.2388L19.1369 12.4527L14.4408 23.2117H19.4483L21.4948 28.2388H25.9797Z" fill="#FA0F00"/>
</svg>
