<svg width="103" height="37" viewBox="0 0 103 37" fill="none" xmlns="http://www.w3.org/2000/svg">
<path d="M59.0387 24.1178C60.885 23.8991 64.9233 23.4207 65.6433 24.3427C66.3713 25.2737 64.8359 29.1021 64.1495 30.8134L64.1483 30.8165C63.9396 31.3354 64.3868 31.5438 64.8553 31.1525C67.9093 28.6047 68.693 23.2666 68.0712 22.4967C67.4493 21.7311 62.1166 21.0718 58.8667 23.3559C58.3641 23.7047 58.4493 24.1896 59.0073 24.1216L59.0387 24.1178Z" fill="#FF9900"/>
<path d="M42.2552 33.4621C49.3512 33.4621 57.5931 31.2291 63.2793 27.0437C64.2206 26.3461 63.4156 25.3083 62.453 25.7166C56.081 28.4175 49.1511 29.7191 42.8515 29.7191C33.5107 29.7191 24.4681 27.1628 17.1548 22.9136C16.5159 22.5393 16.0389 23.1943 16.5713 23.675C23.3479 29.7871 32.3053 33.4621 42.2552 33.4621Z" fill="#FF9900"/>
<path fill-rule="evenodd" clip-rule="evenodd" d="M54.2539 21.0421C54.0537 21.2207 53.7641 21.2335 53.5383 21.1144C52.6828 20.4049 52.4227 20.0188 52.0255 19.4293C51.956 19.3261 51.8823 19.2167 51.8005 19.0982C50.1394 20.7911 48.9595 21.2973 46.8085 21.2973C44.2572 21.2973 42.2766 19.7277 42.2766 16.5845C42.2766 14.1302 43.6055 12.4586 45.5052 11.642C46.8837 11.0357 48.7203 10.8481 50.312 10.6854C50.6188 10.6541 50.9164 10.6237 51.1999 10.5914V10.2C51.1999 10.1269 51.2005 10.0523 51.2011 9.97677C51.2062 9.31038 51.2119 8.5673 50.8294 8.00953C50.4631 7.45232 49.756 7.22264 49.1299 7.22264C47.9756 7.22264 46.9491 7.81387 46.6978 9.03886C46.6467 9.31108 46.4465 9.57905 46.1696 9.59181L43.2349 9.27705C42.9879 9.22176 42.7111 9.02184 42.7835 8.64329C43.4564 5.08741 46.6765 4.01554 49.5558 4.01554C51.0296 4.01554 52.9548 4.40686 54.1176 5.52126C55.4724 6.78425 55.4629 8.43546 55.4526 10.2436C55.4517 10.4023 55.4508 10.5622 55.4508 10.7232V15.436C55.4508 16.7006 55.9193 17.3312 56.4138 17.9967C56.4732 18.0766 56.5329 18.157 56.5923 18.239C56.7839 18.5113 56.8265 18.8388 56.5795 19.0429C55.9619 19.5576 54.863 20.5146 54.2581 21.0506L54.2539 21.0421ZM51.1999 13.6709C51.1999 13.7248 51.2 13.7783 51.2001 13.8315C51.2013 14.9392 51.2024 15.8795 50.6334 16.8779C50.1521 17.7286 49.3854 18.2518 48.5378 18.2518C47.375 18.2518 46.6935 17.3671 46.6935 16.0613C46.6935 13.4837 49.0064 13.0158 51.1999 13.0158V13.6709Z" fill="black"/>
<path d="M19.7957 21.0846H22.8241C23.1478 21.0846 23.4077 20.8336 23.4077 20.5231V12.297C23.4077 12.2326 23.4076 12.1673 23.4074 12.1012C23.4045 10.327 23.4006 8.01804 25.499 8.01804C27.4304 8.01804 27.3975 10.0723 27.3706 11.745C27.3676 11.9351 27.3646 12.1204 27.3646 12.297L27.3689 20.5231C27.3689 20.8209 27.6074 21.0633 27.9141 21.0846H30.9382C31.2619 21.0846 31.5217 20.8336 31.5217 20.5231V12.297C31.5217 12.2283 31.5215 12.157 31.5214 12.0835C31.5191 11.2153 31.5162 10.0454 31.8028 9.32384C32.1138 8.54121 32.8804 8.05206 33.6131 8.05206C34.4905 8.05206 35.1677 8.34555 35.3935 9.38764C35.51 9.88751 35.4941 11.0433 35.4835 11.8168C35.4809 12.0042 35.4787 12.1692 35.4787 12.297V20.5231C35.4787 20.8209 35.7214 21.0633 36.0238 21.0846H39.048C39.3717 21.0846 39.6315 20.8336 39.6315 20.5231L39.6358 10.7275C39.6358 10.4886 39.6398 10.2449 39.6439 9.99889L39.6439 9.99851C39.6683 8.53141 39.694 6.97971 38.8734 5.86154C38.0257 4.68759 36.6372 4.16442 35.3679 4.16442C33.5832 4.16442 31.9178 5.07891 31.1852 7.03975C30.3334 5.07891 29.1493 4.16442 27.2539 4.16442C25.3883 4.16442 24.004 5.07891 23.2671 7.03975H23.2117V5.01085C23.1904 4.73013 22.9562 4.50469 22.6623 4.49194H19.8383C19.5146 4.49194 19.2548 4.73864 19.2548 5.04914V20.5699C19.2761 20.8464 19.5061 21.0633 19.7957 21.0846Z" fill="black"/>
<path d="M59.135 5.01084V7.23114C59.135 7.56291 59.3906 7.78834 59.71 7.78834H64.9107L58.9348 16.3463C58.5728 16.895 58.5685 17.5117 58.5685 17.8732V20.1233C58.5685 20.4466 58.9306 20.8209 59.2756 20.6337C62.6618 18.8388 66.7294 19.0132 69.7919 20.6167C70.1667 20.8124 70.5245 20.4338 70.5245 20.1106V17.7414C70.4947 17.4224 70.3882 17.0991 69.9964 16.8779C68.2586 15.8996 66.2354 15.6147 64.3187 15.6615L69.4767 8.30726C69.9538 7.64797 70.2221 7.23114 70.2264 6.91213V5.01084C70.2264 4.67907 69.9708 4.44939 69.6514 4.44939H59.6973C59.3906 4.44939 59.135 4.67482 59.135 5.01084Z" fill="black"/>
<path fill-rule="evenodd" clip-rule="evenodd" d="M78.7962 4.16442C83.2898 4.16442 85.7219 8.01804 85.7219 12.918C85.7219 17.6521 83.0343 21.4079 78.7962 21.4079C74.3835 21.4079 71.9813 17.5542 71.9813 12.7521C71.9813 7.92021 74.4133 4.16442 78.7962 4.16442ZM78.8218 7.33323C76.5899 7.33323 76.4493 10.3702 76.4493 12.263L76.4493 12.3326C76.4489 14.2572 76.4482 18.2093 78.7962 18.2093C81.1431 18.2093 81.2539 14.9426 81.2539 12.952C81.2539 11.642 81.1985 10.0767 80.8024 8.8347C80.4616 7.75433 79.7844 7.33323 78.8218 7.33323Z" fill="black"/>
<path d="M88.5331 21.0846H91.5487C91.8724 21.0846 92.1365 20.8336 92.1408 20.5231V12.1651C92.1408 11.1188 92.1961 10.1745 92.6221 9.22601C92.9586 8.47741 93.6358 7.98401 94.3727 7.98401C96.3029 7.98401 96.2847 10.1 96.2704 11.7603C96.2692 11.8989 96.2681 12.0344 96.2681 12.1651V20.5955C96.2979 20.8592 96.5279 21.0633 96.8048 21.0846H99.8417C100.14 21.0846 100.391 20.8677 100.425 20.5955V10.8253C100.425 9.32384 100.425 7.2354 99.633 5.9934C98.7811 4.65357 97.4564 4.16442 96.0977 4.16442C94.0064 4.16442 92.818 5.17674 91.9704 7.2992H91.915V4.92579C91.8554 4.68334 91.6382 4.50469 91.3741 4.49194H88.5672C88.2605 4.49194 88.0092 4.71311 87.9836 4.99809L87.9879 20.5231C87.9879 20.8209 88.2307 21.0633 88.5331 21.0846Z" fill="black"/>
<path fill-rule="evenodd" clip-rule="evenodd" d="M13.8369 21.1144C14.0627 21.2335 14.3523 21.2207 14.5525 21.0421L14.561 21.0506C15.1658 20.5147 16.2647 19.5576 16.8823 19.043C17.1294 18.8388 17.0868 18.5113 16.8909 18.2391C16.8315 18.157 16.7718 18.0766 16.7124 17.9967C16.2179 17.3312 15.7494 16.7006 15.7494 15.4361V10.7232C15.7494 10.5623 15.7503 10.4023 15.7512 10.2436C15.7615 8.43548 15.771 6.78427 14.4162 5.52129C13.2534 4.40689 11.3282 4.01557 9.85442 4.01557C6.9751 4.01557 3.75929 5.08744 3.08206 8.64331C3.01391 9.02187 3.28651 9.22178 3.53355 9.27707L6.4725 9.59183C6.7451 9.57907 6.94528 9.3111 6.9964 9.03888C7.2477 7.81389 8.27846 7.22266 9.43274 7.22266C10.0546 7.22266 10.7617 7.45235 11.1322 8.00955C11.5106 8.56682 11.5049 9.30907 11.4997 9.975C11.4991 10.0512 11.4985 10.1263 11.4985 10.2001V10.5914C11.215 10.6237 10.9174 10.6541 10.6106 10.6854C9.01885 10.8481 7.18226 11.0357 5.80378 11.642C3.90837 12.4586 2.5752 14.1303 2.5752 16.5845C2.5752 19.7278 4.56005 21.2973 7.10714 21.2973C9.26237 21.2973 10.4379 20.7911 12.0991 19.0983C12.1867 19.2242 12.265 19.3398 12.3386 19.4487C12.7301 20.0274 12.9908 20.4127 13.8369 21.1144ZM11.4987 13.8315C11.4986 13.7783 11.4985 13.7248 11.4985 13.6709V13.0159C9.30922 13.0159 6.9964 13.4837 6.9964 16.0613C6.9964 17.3671 7.67363 18.2518 8.83643 18.2518C9.6883 18.2518 10.4507 17.7287 10.932 16.878C11.501 15.8795 11.4999 14.9392 11.4987 13.8315Z" fill="black"/>
</svg>
