<svg width="104" height="57" viewBox="0 0 104 57" fill="none" xmlns="http://www.w3.org/2000/svg">
<g clip-path="url(#clip0_78_1356)">
<path d="M72.9287 36.9852C71.5014 37.3123 67.7449 37.5006 67.7449 37.5006L67.2692 38.9873C67.2692 38.9873 69.1425 38.8287 70.5103 38.9675C70.5103 38.9675 70.9563 38.9179 71.0058 39.473C71.0257 39.9884 70.9662 40.5434 70.9662 40.5434C70.9662 40.5434 70.9365 40.8804 70.4607 40.9597C69.9453 41.0489 66.4168 41.1778 66.4168 41.1778L65.8419 43.1105C65.8419 43.1105 65.6338 43.5565 66.1096 43.4277C66.5556 43.3087 70.2526 42.6149 70.7382 42.714C71.2536 42.8429 71.8285 43.5268 71.66 44.1611C71.4618 44.9342 67.7747 47.2932 65.5248 47.1247C65.5248 47.1247 64.3453 47.204 63.3442 45.6082C62.4126 44.0917 63.7011 41.2075 63.7011 41.2075C63.7011 41.2075 63.1163 39.8595 63.5425 39.4135C63.5425 39.4135 63.8002 39.1855 64.5336 39.1261L65.4356 37.2528C65.4356 37.2528 64.4048 37.3222 63.7903 36.5689C63.2154 35.8454 63.1757 35.5183 63.6118 35.3201C64.0777 35.0921 68.3694 34.3091 71.323 34.4082C71.323 34.4082 72.3538 34.3091 73.2359 36.0932C73.226 36.0932 73.6621 36.8167 72.9287 36.9852ZM61.8179 44.1809C61.4412 45.073 60.4402 46.0245 59.2012 45.4298C57.9722 44.8351 56.0196 40.8408 56.0196 40.8408C56.0196 40.8408 55.2763 39.354 55.1375 39.3838C55.1375 39.3838 54.9789 39.0963 54.8798 40.7218C54.7807 42.3473 54.8996 45.5091 54.2554 46.0047C53.6409 46.5002 52.8975 46.302 52.511 45.7172C52.1641 45.1424 52.0154 43.7746 52.2037 41.376C52.4317 38.9774 52.9867 36.4202 53.7003 35.6174C54.414 34.8245 54.9888 35.3993 55.2069 35.6075C55.2069 35.6075 56.1584 36.4698 57.7343 39.0071L58.0118 39.473C58.0118 39.473 59.4391 41.8716 59.5878 41.8617C59.5878 41.8617 59.7067 41.9707 59.8058 41.8914C59.9545 41.8517 59.895 41.0786 59.895 41.0786C59.895 41.0786 59.5977 38.4719 58.2993 34.0514C58.2993 34.0514 58.1011 33.4963 58.2398 32.9809C58.3687 32.4556 58.894 32.7034 58.894 32.7034C58.894 32.7034 60.9159 33.7144 61.8872 37.005C62.8487 40.3254 62.1945 43.2889 61.8179 44.1809ZM51.8865 35.7264C51.718 36.0634 51.6189 36.5491 50.7665 36.6779C50.7665 36.6779 42.6094 37.233 42.2228 37.8078C42.2228 37.8078 41.9354 38.1448 42.3814 38.244C42.8274 38.3332 44.671 38.5809 45.563 38.6305C46.5145 38.6404 49.7258 38.6701 50.8756 40.1073C50.8756 40.1073 51.5595 40.7912 51.5297 42.3374C51.5 43.9232 51.2225 44.4783 50.608 45.0532C49.9637 45.5884 44.4331 48.0663 40.8649 44.2602C40.8649 44.2602 39.2196 42.4266 41.4299 41.039C41.4299 41.039 43.0257 40.0776 47.0795 41.2075C47.0795 41.2075 48.3085 41.6535 48.249 42.0995C48.1796 42.5753 47.238 43.0808 45.8703 43.051C44.5421 43.0114 43.5708 42.3771 43.7591 42.4762C43.9375 42.5455 42.3318 41.7031 41.8363 42.2779C41.3407 42.8032 41.4596 43.1303 41.9453 43.4574C43.1842 44.1611 47.9715 43.9133 49.3988 42.3275C49.3988 42.3275 49.9637 41.6832 49.1014 41.1579C48.2391 40.6624 45.7711 40.365 44.8097 40.3155C43.888 40.2659 40.4586 40.3254 39.963 39.4135C39.963 39.4135 39.4674 38.799 40.0126 37.0546C40.5874 35.2309 44.5818 34.5271 46.3064 34.3686C46.3064 34.3686 51.054 34.2001 51.9262 35.1714C51.9163 35.1714 52.0352 35.3994 51.8865 35.7264ZM38.4069 46.4209C37.832 46.8471 36.6129 46.6588 36.266 46.1831C35.9191 45.7569 35.8002 44.062 35.8695 41.4057C35.9389 38.7197 35.9984 35.3894 36.5733 34.8641C37.1878 34.3289 37.5644 34.7947 37.8023 35.1615C38.06 35.5183 38.3672 35.9147 38.4366 36.7572C38.4961 37.5997 38.6943 42.0202 38.6943 42.0202C38.6943 42.0202 38.952 46.0047 38.4069 46.4209ZM39.6458 32.1682C37.9708 32.7232 36.8211 32.5349 35.8497 32.1186C35.4235 32.862 35.1757 33.09 34.8487 33.1395C34.3729 33.1891 33.9467 32.4259 33.8674 32.1781C33.7881 31.9898 33.5602 31.6726 33.8377 30.9193C32.8862 30.067 32.8168 28.9172 32.9754 28.1441C33.2133 27.2521 34.8189 23.8624 39.7053 23.4659C39.7053 23.4659 42.094 23.2875 42.5003 24.5661H42.5697C42.5697 24.5661 44.889 24.576 44.8395 26.6376C44.8097 28.7091 42.2625 31.2861 39.6458 32.1682ZM35.0865 27.5792C34.591 28.3721 34.5711 28.8478 34.7991 29.1749C35.3641 28.3126 36.3949 26.9547 37.9113 25.924C36.7418 26.0231 35.7605 26.5286 35.0865 27.5792ZM41.8363 26.251C40.3 26.479 37.9212 28.5406 36.7913 30.2255C38.5258 30.5427 41.5885 30.4238 42.9464 27.6585C42.9365 27.6585 43.5906 25.9438 41.8363 26.251ZM83.5439 42.2185C82.6221 43.8241 80.0352 47.1742 76.586 46.3912C75.4462 49.1565 74.4947 51.9416 73.9495 56.1243C73.9495 56.1243 73.8306 56.937 73.1566 56.6496C72.4926 56.4117 71.3825 55.3017 71.1644 53.7654C70.9265 51.7434 71.8285 48.324 73.6621 44.4089C73.1269 43.5367 72.7602 42.2878 73.0773 40.5137C73.0773 40.5137 73.5432 37.2231 76.8437 34.2496C76.8437 34.2496 77.2402 33.9027 77.4681 34.0117C77.7258 34.1208 77.6069 35.1912 77.3988 35.7066C77.1906 36.222 75.7138 38.7792 75.7138 38.7792C75.7138 38.7792 74.792 40.5038 75.0497 41.8617C76.7842 39.1955 80.729 33.8135 83.1772 35.5084C83.9998 36.0932 84.3764 37.3717 84.3764 38.7494C84.3665 39.9686 84.0791 41.257 83.5439 42.2185ZM82.8303 37.9962C82.8303 37.9962 82.6915 36.9356 81.6607 38.1052C80.7687 39.0864 79.163 40.9399 77.8646 43.4475C79.2225 43.2988 80.5308 42.5555 80.9272 42.1788C81.5715 41.604 83.0681 40.0578 82.8303 37.9962ZM34.7099 39.3441C34.5216 41.7427 33.5998 45.7767 27.0681 47.7689C22.7566 49.0673 18.683 48.4429 16.4628 47.8779C16.4133 48.7601 16.3141 49.1367 16.1754 49.2854C15.9871 49.4737 14.5796 50.2864 13.8065 49.1367C13.4596 48.5916 13.2812 47.6004 13.1821 46.7183C8.18672 44.4188 5.88725 41.1084 5.79804 40.9597C5.68902 40.8507 4.54919 39.6613 5.68902 38.2043C6.75946 36.8861 10.2582 35.5678 13.4101 35.0326C13.5191 32.3367 13.8363 30.3048 14.2129 29.3732C14.6688 28.2928 15.2437 29.2641 15.7393 29.9976C16.1556 30.5427 16.4034 32.8917 16.4232 34.765C18.4848 34.6659 19.7039 34.8146 22.0034 35.2309C24.9966 35.776 26.9988 37.3024 26.8203 39.0369C26.6915 40.7416 25.1255 41.4454 24.5308 41.4949C23.9064 41.5445 22.935 41.0985 22.935 41.0985C22.271 40.7813 22.8855 40.5038 23.6883 40.1569C24.5605 39.7307 24.3623 39.2946 24.3623 39.2946C24.0352 38.3431 20.1499 37.679 16.2844 37.679C16.2646 39.81 16.3736 43.3484 16.4232 45.41C19.129 45.9254 21.151 45.8263 21.151 45.8263C21.151 45.8263 31.0228 45.5487 31.3202 39.245C31.6274 32.9314 21.478 26.8755 13.975 24.9526C6.48194 22.9901 2.23981 24.3579 1.87309 24.5463C1.47663 24.7445 1.84335 24.804 1.84335 24.804C1.84335 24.804 2.24972 24.8634 2.95344 25.1013C3.6968 25.3392 3.12194 25.7257 3.12194 25.7257C1.84335 26.1321 0.406185 25.8744 0.128663 25.2896C-0.148859 24.7048 0.316981 24.1795 0.852203 23.4263C1.38742 22.6333 1.9722 22.6631 1.9722 22.6631C11.2395 19.4517 22.5287 25.2599 22.5287 25.2599C33.1042 30.622 34.9081 36.9059 34.7099 39.3441ZM6.73964 39.017C5.68902 39.5324 6.41256 40.2758 6.41256 40.2758C8.38495 42.3969 10.8133 43.725 13.1226 44.5477C13.3903 40.8903 13.3506 39.6018 13.3803 37.7583C9.77256 38.0061 7.69114 38.5809 6.73964 39.017Z" fill="#01147C"/>
<path d="M103.168 38.2638V39.5721C103.168 39.8595 102.94 40.0875 102.653 40.0875H96.4186C96.4186 40.4146 96.4285 40.702 96.4285 40.9696C96.4285 42.9024 96.3492 44.4783 96.1609 46.2524C96.1312 46.5201 95.9131 46.7183 95.6554 46.7183H94.3074C94.1687 46.7183 94.0398 46.6588 93.9506 46.5597C93.8614 46.4606 93.8119 46.3218 93.8317 46.1831C94.02 44.4188 94.1092 42.8627 94.1092 40.9696C94.1092 40.6921 94.1092 40.4047 94.0993 40.0875H87.9343C87.6469 40.0875 87.4189 39.8595 87.4189 39.5721V38.2638C87.4189 37.9763 87.6469 37.7484 87.9343 37.7484H94.0101C93.8812 35.6174 93.6235 33.5657 93.2073 31.4843C93.1874 31.3555 93.2172 31.2266 93.2965 31.1275C93.3758 31.0284 93.4947 30.9689 93.6235 30.9689H95.0805C95.3085 30.9689 95.4968 31.1275 95.5464 31.3555C95.9528 33.5062 96.2105 35.5976 96.3393 37.7484H102.653C102.93 37.7484 103.168 37.9862 103.168 38.2638Z" fill="#01147C"/>
<path d="M94.6847 27.8864C91.4635 19.9671 86.0221 13.2174 78.9453 8.36077C71.6999 3.3951 63.2058 0.768555 54.3845 0.768555C39.7948 0.768555 26.2557 8.01386 18.1778 20.1555C18.0886 20.2843 18.0688 20.4528 18.1183 20.6015C18.1679 20.7601 18.2868 20.8691 18.4355 20.9186L19.5654 21.3052C19.6348 21.325 19.7042 21.3349 19.7637 21.3349C19.9718 21.3349 20.17 21.2259 20.289 21.0574C23.9959 15.6061 29.0111 11.0765 34.7994 7.94448C40.776 4.71333 47.5456 2.99864 54.3746 2.99864C62.6309 2.99864 70.5899 5.43687 77.409 10.0358C84.0596 14.5257 89.2235 20.7997 92.3456 28.164C92.4348 28.382 92.6529 28.5307 92.8907 28.5307H94.2387C94.3973 28.5307 94.546 28.4514 94.6253 28.3225C94.7244 28.1937 94.7442 28.0351 94.6847 27.8864ZM19.7637 20.9979H19.7835C19.7835 20.9979 19.7736 20.9979 19.7637 20.9979ZM92.6132 28.3523C92.643 28.3721 92.6727 28.3919 92.7024 28.4018C92.6727 28.382 92.643 28.3721 92.6132 28.3523Z" fill="url(#paint0_radial_78_1356)"/>
</g>
<defs>
<radialGradient id="paint0_radial_78_1356" cx="0" cy="0" r="1" gradientUnits="userSpaceOnUse" gradientTransform="translate(93.4184 28.4807) scale(75.3397 75.3397)">
<stop offset="0.007" stop-color="#021192"/>
<stop offset="0.03" stop-color="#021096"/>
<stop offset="0.057" stop-color="#010CB4"/>
<stop offset="0.084" stop-color="#0008CE"/>
<stop offset="0.111" stop-color="#0006D7"/>
<stop offset="0.138" stop-color="#0004E1"/>
<stop offset="0.165" stop-color="#0001FA"/>
<stop offset="0.191" stop-color="#0000FE"/>
<stop offset="0.216" stop-color="#0F1EFF"/>
<stop offset="1" stop-color="#00FFFF" stop-opacity="0"/>
</radialGradient>
<clipPath id="clip0_78_1356">
<rect width="103.179" height="56" fill="white" transform="translate(0 0.738831)"/>
</clipPath>
</defs>
</svg>
