<svg width="168" height="56" viewBox="0 0 168 56" fill="none" xmlns="http://www.w3.org/2000/svg">
<path d="M36.0752 41.1457L40.4042 8.31738L66.739 28.1587L36.0752 41.1457Z" fill="#2A29EA" fill-opacity="0.46"/>
<path d="M23.4487 9.03894L27.0562 41.5065L53.7518 22.3867L23.4487 9.03894Z" fill="#FF4173" fill-opacity="0.31"/>
<path d="M33.9105 16.2539L20.202 47.2784L0 20.9437L33.9105 16.2539Z" fill="#FFDA58" fill-opacity="0.27"/>
<path d="M68.8457 40.1645V35.013C70.1444 36.1385 72.2223 37.0909 74.4734 37.0909C77.6336 37.0909 78.1531 34.1472 78.1531 31.0303V9.38528H84.6466V31.9827C84.6466 38.3463 82.4388 42.2857 75.7721 42.2857C73.3046 42.2857 70.6206 41.4632 68.8457 40.1645Z" fill="black"/>
<path d="M113.839 14.5368L102.02 48H95.1373L98.081 40.0346L88.1676 14.5368H95.1806L101.284 31.7229H101.371L107.129 14.5368H113.839Z" fill="black"/>
<path d="M117.273 41.5065V8H123.766V20.2944H123.853C125.455 16.1818 127.576 13.7576 132.294 13.7576C140.043 13.7576 141.472 21.7229 141.472 27.8701C141.472 34.9697 138.225 42.2857 131.472 42.2857C126.537 42.2857 124.502 39.3853 123.463 36.3983H123.377V41.5065H117.273ZM135.498 28.5195C135.498 23.8009 134.416 20.2511 129.307 20.2511C124.675 20.2511 123.377 24.7965 123.377 28.1732C123.377 33.0216 124.416 36.8312 129.654 36.8312C133.074 36.8312 135.498 33.2381 135.498 28.5195Z" fill="black"/>
<path d="M166.58 31.9827V37.697C164.372 40.381 161.039 42.2857 157.489 42.2857C148.658 42.2857 144.762 36.3983 144.762 27.8701C144.762 19.2554 149.134 13.7576 156.796 13.7576C164.935 13.7576 167.922 19.0823 167.922 26.9177C167.922 28.0433 167.792 29.1688 167.705 30.2511H150.995C151.082 34.9264 153.766 37.0909 158.355 37.0909C162.814 37.0909 164.632 35.0563 166.58 31.9827ZM150.995 25.0563H163.506C163.376 21.4632 160.389 19.7316 157.143 19.7316C154.156 19.7316 151.298 21.5931 150.995 25.0563Z" fill="black"/>
</svg>
