<svg width="173" height="40" viewBox="0 0 173 40" fill="none" xmlns="http://www.w3.org/2000/svg">
<path d="M36.0752 33.3478L40.4042 0.519531L66.739 20.3608L36.0752 33.3478Z" fill="#2A29EA" fill-opacity="0.46"/>
<path d="M23.4492 1.24121L27.0567 33.7087L53.7522 14.589L23.4492 1.24121Z" fill="#FF4173" fill-opacity="0.31"/>
<path d="M33.9105 8.45605L20.202 39.4806L0 13.1458L33.9105 8.45605Z" fill="#FFDA58" fill-opacity="0.27"/>
<g clip-path="url(#clip0_389_1657)">
<path d="M92.1348 2.97762V20.7783C92.1348 23.5341 91.3327 25.6568 89.7284 27.1464C88.1496 28.636 86.0106 29.3808 83.3114 29.3808C80.4848 29.3808 78.2184 28.5987 76.5123 27.0347C74.8062 25.4706 73.9531 23.2486 73.9531 20.3687H80.4466C80.4466 21.4611 80.6758 22.2928 81.1341 22.8638C81.5925 23.41 82.2545 23.6831 83.1204 23.6831C83.9098 23.6831 84.5209 23.4348 84.9538 22.9383C85.3867 22.4418 85.6032 21.7217 85.6032 20.7783V2.97762H92.1348ZM120.742 8.34018L107.373 38.9887H100.345L105.234 28.4125L96.5634 8.34018H103.859L108.786 21.3369L113.676 8.34018H120.742ZM131.195 11.2821C131.806 10.3139 132.684 9.53186 133.83 8.93602C134.976 8.34018 136.288 8.04226 137.765 8.04226C139.522 8.04226 141.113 8.47672 142.539 9.34566C143.965 10.2146 145.086 11.456 145.9 13.0697C146.741 14.6834 147.161 16.5578 147.161 18.6929C147.161 20.828 146.741 22.7148 145.9 24.3534C145.086 25.9671 143.965 27.2209 142.539 28.1146C141.113 28.9835 139.522 29.418 137.765 29.418C136.262 29.418 134.951 29.1325 133.83 28.5615C132.71 27.9657 131.831 27.1836 131.195 26.2154V29.1201H124.663V1.5625H131.195V11.2821ZM140.515 18.6929C140.515 17.104 140.056 15.8627 139.14 14.9689C138.248 14.0503 137.141 13.591 135.817 13.591C134.518 13.591 133.41 14.0503 132.493 14.9689C131.602 15.8875 131.156 17.1412 131.156 18.7301C131.156 20.3191 131.602 21.5728 132.493 22.4914C133.41 23.41 134.518 23.8693 135.817 23.8693C137.115 23.8693 138.223 23.41 139.14 22.4914C140.056 21.548 140.515 20.2818 140.515 18.6929ZM172.238 18.395C172.238 18.9908 172.2 19.6115 172.124 20.257H157.342C157.444 21.548 157.864 22.541 158.602 23.2362C159.366 23.9065 160.295 24.2417 161.39 24.2417C163.02 24.2417 164.153 23.5713 164.79 22.2307H171.742C171.385 23.5962 170.736 24.8251 169.794 25.9175C168.877 27.0098 167.719 27.8663 166.318 28.487C164.917 29.1077 163.351 29.418 161.62 29.418C159.531 29.418 157.673 28.9835 156.043 28.1146C154.413 27.2457 153.14 26.0043 152.223 24.3906C151.306 22.7769 150.848 20.8901 150.848 18.7301C150.848 16.5702 151.294 14.6834 152.185 13.0697C153.102 11.456 154.375 10.2146 156.005 9.34566C157.635 8.47672 159.506 8.04226 161.62 8.04226C163.682 8.04226 165.516 8.46431 167.12 9.30842C168.724 10.1526 169.972 11.3566 170.863 12.9207C171.78 14.4848 172.238 16.3095 172.238 18.395ZM165.554 16.7192C165.554 15.6268 165.172 14.7578 164.408 14.1124C163.644 13.4669 162.689 13.1441 161.543 13.1441C160.448 13.1441 159.519 13.4544 158.755 14.0751C158.017 14.6958 157.558 15.5771 157.38 16.7192H165.554Z" fill="#1A4AB1"/>
</g>
<defs>
<clipPath id="clip0_389_1657">
<rect width="99" height="38" fill="white" transform="translate(73.7393 1)"/>
</clipPath>
</defs>
</svg>
