<svg xmlns="http://www.w3.org/2000/svg" width="114" height="32" viewBox="0 0 114 32" fill="none">
    <path d="M107.903 15.4955L114 31.7388C112.203 31.4802 110.406 31.1567 108.577 30.8662L105.142 21.8898L101.612 30.1243C99.8791 29.8337 98.1772 29.7359 96.4444 29.5102L102.639 15.3018L97.022 0.738831H102.222L105.367 8.87552L108.737 0.738831H114L107.903 15.4955ZM92.9145 0.738831H88.1966V28.8971C89.7368 28.994 91.3415 29.0579 92.9145 29.2516V0.738831ZM84.1198 28.5736C79.8197 28.2831 75.5187 28.0255 71.1223 27.9276V0.738831H75.9355V23.3426C78.6963 23.4075 81.4562 23.6331 84.1198 23.762V28.5736ZM65.9867 11.7501V16.5938H59.408V27.6051H54.6574V0.738831H68.1372V5.58249H59.408V11.7501H65.9867ZM46.5694 5.58249V27.8637C44.9647 27.8637 43.3282 27.8637 41.7552 27.9276V5.58249H36.7803V0.738831H51.576V5.58249H46.5694ZM31.5812 16.8514C29.4634 16.8514 26.9595 16.8514 25.1623 16.9493V24.1503C27.9867 23.9557 30.811 23.73 33.6672 23.6331V28.2831L20.3482 29.3494V0.738831H33.6672V5.58249H25.1623V12.1046C27.024 12.1046 29.8802 12.0078 31.5812 12.0078V16.8514ZM4.9104 14.1395V31.0599C3.17766 31.2546 1.63648 31.4802 0 31.7388V0.738831H4.58984L10.8479 18.3381V0.738831H15.6621V29.7359C13.9611 30.0274 12.2283 30.1243 10.3984 30.3819L4.9104 14.1395Z" fill="#F11313" />
</svg>